<svg preserveAspectRatio="none" viewBox="0 0 414 896" fill="none" xmlns="http://www.w3.org/2000/svg">
<g clip-path="url(#clip0_91_22)">
<path d="M414 0H0V896H414V0Z" fill="#EFDFC5"/>
<path d="M414 227.7C371.9 223.1 329.8 218.4 300.2 197.2C270.5 176 253.4 138.1 236.5 102.5C219.6 66.9 202.9 33.4 186.3 0H414V227.7Z" fill="#D6C5AA"/>
<path d="M414 113.9C392.9 111.5 371.9 109.2 357.1 98.6C342.3 88 333.7 69.1 325.2 51.3C316.8 33.4 308.5 16.7 300.2 0H414V113.9Z" fill="#B09C7C"/>
<path d="M0 668.3C42.1 672.9 84.2 677.6 113.8 698.8C143.5 720 160.6 757.9 177.5 793.5C194.4 829.1 211.1 862.6 227.7 896H0V668.3Z" fill="#D6C5AA"/>
<path d="M0 782.2C21.1 784.5 42.1 786.8 56.9 797.4C71.7 808 80.3 826.9 88.8 844.7C97.2 862.6 105.5 879.3 113.9 896H0V782.2Z" fill="#B09C7C"/>
</g>
<defs>
<clipPath id="clip0_91_22">
<rect width="414" height="896" fill="white"/>
</clipPath>
</defs>
</svg>