<svg preserveAspectRatio="none" viewBox="0 0 414 896" fill="none" xmlns="http://www.w3.org/2000/svg">
<g clip-path="url(#clip0_91_22)">
<path d="M0 0H414V896H0V0Z" fill="#BAA17C"/>
<path d="M0.000198364 227.7C42.1002 223.1 84.2002 218.4 113.8 197.2C143.5 176 160.6 138.1 177.5 102.5C194.4 66.9 211.1 33.4 227.7 0H0.000198364V227.7Z" fill="#C8B9A0"/>
<path d="M0.000289917 113.9C21.1003 111.5 42.1003 109.2 56.9003 98.6C71.7003 88 80.3003 69.1 88.8003 51.3C97.2003 33.4 105.5 16.7 113.8 0H0.000289917V113.9Z" fill="#B4A284"/>
<path d="M414 668.3C371.9 672.9 329.8 677.6 300.2 698.8C270.5 720 253.4 757.9 236.5 793.5C219.6 829.1 202.9 862.6 186.3 896H414V668.3Z" fill="#C8B9A0"/>
<path d="M414 782.2C392.9 784.5 371.9 786.8 357.1 797.4C342.3 808 333.7 826.9 325.2 844.7C316.8 862.6 308.5 879.3 300.1 896H414V782.2Z" fill="#B4A284"/>
</g>
<defs>
<clipPath id="clip0_91_22">
<rect width="414" height="896" fill="white" transform="matrix(-1 0 0 1 414 0)"/>
</clipPath>
</defs>
</svg>
